<svg version="1.2" xmlns="http://www.w3.org/2000/svg" viewBox="0 0 1098 198" width="1098" height="198">
	<title>logo-white-svg</title>
	<style>
		.s0 { fill: #ffffff;stroke: #000000;stroke-width: .4 } 
		.s1 { fill: #ffffff } 
	</style>
	<g id="Layer">
		<g id="Layer">
			<g id="tight-bounds">
				<g id="Layer">
					<g id="Layer">
						<g id="Layer">
							<g id="Layer">
								<g id="Layer">
									<g id="Layer">
										<path id="qz-0" class="s0" d="m217.2 28c0-1.1 0.9-2 2-2h7c1.1 0 2 0.9 2 2v142.3c0 1.1-0.9 2-2 2h-7c-1.1 0-2-0.9-2-2z"/>
									</g>
									<g id="Layer">
										<g id="Layer">
											<g id="textblocktransform">
												<g id="textblock">
													<g id="Layer">
														<g id="Layer">
															<g id="Layer">
																<g id="Layer">
																	<path id="text-0" fill-rule="evenodd" class="s1" d="m305.5 160.1q-15.8 0-26.4-4.6-10.6-4.7-16.1-12.2-5.6-7.6-5.9-15.9 0-1.5 1-2.5 1-1 2.6-1h15.1q2.2 0 3.3 0.9 1.1 1 2 2.3 1 3.2 3.9 6.3 2.9 3.2 7.9 5.2 5 2.1 12.6 2.1 12.3 0 18.3-4.1 6-4.1 6-11 0-4.9-3.2-7.9-3.2-3-9.9-5.4-6.8-2.5-17.8-5.2-12.7-3-21.3-7.3-8.6-4.4-12.9-11-4.4-6.6-4.4-16.7 0-9.9 5.4-17.5 5.3-7.6 15.3-12 9.9-4.4 23.7-4.4 11 0 19.5 2.9 8.5 3 14.1 7.8 5.6 4.9 8.6 10.4 3 5.5 3.1 10.7 0 1.4-0.9 2.5-0.9 1.1-2.6 1.1h-15.8q-1.4 0-2.8-0.7-1.3-0.7-2.2-2.5-1-5.3-6.6-9-5.6-3.7-14.4-3.7-9.2 0-14.8 3.4-5.6 3.3-5.6 10.5 0 4.7 2.8 7.8 2.8 3.2 9 5.5 6.2 2.4 16.4 5.1 14.4 3.2 23.6 7.5 9.2 4.2 13.4 10.7 4.3 6.5 4.3 16.5 0 11.2-6 19.1-6.1 7.9-17 12.1-10.8 4.2-25.3 4.2zm104 0q-12.2 0-21.5-4.5-9.2-4.6-14.4-13.4-5.2-8.7-5.7-21-0.2-2.6-0.2-6.7 0-4.2 0.2-6.9 0.5-12.3 5.7-21.1 5.2-8.7 14.4-13.2 9.3-4.6 21.5-4.6 10.9 0 18.5 2.9 7.7 3 12.6 7.6 4.9 4.7 7.4 9.7 2.5 5 2.6 9.1 0.2 1.8-1.1 2.9-1.3 1.1-3 1.1h-14.9q-1.7 0-2.7-0.8-0.9-0.9-1.7-2.5-2.6-6.8-6.8-9.6-4.1-2.8-10.6-2.8-8.4 0-13.5 5.3-5 5.4-5.3 16.9-0.4 6.4 0 11.8 0.3 11.7 5.3 17 5.1 5.2 13.5 5.2 6.7 0 10.8-2.8 4-2.8 6.6-9.5 0.8-1.7 1.7-2.6 1-0.8 2.7-0.8h14.9q1.7 0 3 1.1 1.3 1.1 1.1 2.9-0.1 3.1-1.6 6.9-1.4 3.8-4.6 7.8-3.1 4-7.9 7.2-4.7 3.4-11.5 5.4-6.7 2-15.5 2zm77.7-1.7h-14.8q-1.7 0-2.9-1.1-1.2-1.2-1.2-2.9v-79.8q0-1.9 1.2-3 1.2-1.2 2.9-1.2h13.7q1.7 0 3 1.2 1.3 1.1 1.3 3v6.9q3.9-5.4 10.1-8.2 6.2-2.9 14.4-2.9h6.9q1.9 0 3 1.2 1.1 1.1 1.1 2.8v12.2q0 1.7-1.1 2.9-1.1 1.2-3 1.2h-13.2q-8.2 0-12.7 4.5-4.5 4.5-4.5 12.6v46.6q0 1.7-1.2 2.9-1.2 1.1-3 1.1zm84.7 1.7q-10.4 0-17.9-4.6-7.6-4.7-11.7-13.3-4-8.5-4-20.2v-47.6q0-1.7 1.2-2.8 1.1-1.2 2.8-1.2h15q1.9 0 3 1.2 1.1 1.1 1.1 2.8v46.6q0 21 18.5 21 8.8 0 14-5.6 5.2-5.6 5.2-15.4v-46.6q0-1.7 1.2-2.8 1.2-1.2 2.9-1.2h14.9q1.7 0 2.9 1.2 1.2 1.1 1.2 2.8v80q0 1.7-1.2 2.9-1.2 1.1-2.9 1.1h-13.7q-1.9 0-3-1.1-1.1-1.2-1.1-2.9v-7q-4.6 6-11.4 9.3-6.8 3.4-17 3.4zm91.1-1.7h-14.3q-1.7 0-2.9-1.1-1.2-1.2-1.2-2.9v-80q0-1.7 1.2-2.8 1.2-1.2 2.9-1.2h13.3q1.7 0 2.8 1.2 1.2 1.1 1.2 2.8v5.8q3.6-4.7 9.7-8.1 6-3.3 14.3-3.4 19.4-0.4 27 15.1 3.9-6.8 11.3-11 7.4-4.1 16.4-4.1 8.8 0 16.1 4 7.2 4.1 11.4 12.3 4.1 8.2 4.1 20.8v48.6q0 1.7-1.2 2.9-1.2 1.1-2.9 1.1h-13.9q-1.7 0-2.9-1.1-1.2-1.2-1.2-2.9v-47.3q0-7.6-2.2-12.1-2.2-4.5-5.9-6.3-3.8-1.9-8.4-1.9-3.7 0-7.4 1.9-3.8 1.8-6.2 6.3-2.3 4.5-2.3 12.1v47.3q0 1.7-1.2 2.9-1.2 1.1-2.9 1.1h-13.9q-1.7 0-2.9-1.1-1.2-1.2-1.2-2.9v-47.3q0-7.6-2.4-12.1-2.4-4.5-6.1-6.3-3.8-1.9-8-1.9-3.9 0-7.6 1.9-3.8 2-6.2 6.4-2.3 4.4-2.3 12v47.3q0 1.7-1.2 2.9-1.2 1.1-2.9 1.1zm160.5 1.7q-8.8 0-15.9-3.5-7.2-3.4-11.3-9.3-4.2-5.8-4.2-13.1 0-11.8 9.7-18.9 9.7-7 25.3-9.4l23.3-3.4v-3.5q0-7.1-3.6-11-3.5-3.9-12.2-3.9-6.1 0-10 2.4-3.8 2.5-5.6 6.6-1.4 2.2-4 2.2h-13.4q-1.8 0-2.8-1-0.9-1.1-0.9-2.8 0.2-2.7 2.3-6.6 2.1-3.9 6.4-7.5 4.4-3.6 11.3-6.2 7-2.5 16.9-2.5 10.7 0 18 2.6 7.4 2.6 11.9 7 4.4 4.4 6.4 10.4 2.1 5.9 2.1 12.5v53.2q0 1.7-1.2 2.9-1.2 1.1-2.9 1.1h-13.8q-1.9 0-3-1.1-1.1-1.2-1.1-2.9v-6.6q-2.2 3-5.9 5.9-3.7 2.9-9.1 4.6-5.4 1.8-12.7 1.8zm5.8-16.1q6 0 10.8-2.5 4.9-2.5 7.6-7.9 2.9-5.3 2.9-13.4v-3.6l-17 2.7q-10.1 1.5-15 4.9-4.9 3.4-4.9 8.3 0 3.8 2.3 6.4 2.3 2.6 5.8 3.9 3.6 1.2 7.5 1.2zm119.3 14.4h-13.8q-10.2 0-17.1-3.5-7-3.6-10.4-10.6-3.4-7-3.4-17.5v-38.5h-13.4q-1.7 0-2.9-1.2-1.2-1.1-1.2-3v-9.7q0-1.7 1.2-2.8 1.2-1.2 2.9-1.2h13.4v-28.1q0-1.7 1.1-2.9 1.1-1.2 3-1.2h13.7q1.7 0 2.9 1.2 1.2 1.2 1.2 2.9v28.1h21.3q1.7 0 2.9 1.2 1.1 1.1 1.1 2.8v9.7q0 1.9-1.1 3-1.2 1.2-2.9 1.2h-21.3v36.8q0 6.9 2.5 10.8 2.5 3.9 8.6 3.9h11.7q1.7 0 2.9 1.2 1.2 1.2 1.2 2.9v10.5q0 1.7-1.2 2.9-1.2 1.1-2.9 1.1zm57.2 1.7q-18.8 0-29.9-10.8-11-10.8-11.9-30.8-0.1-1.7-0.1-4.4 0-2.6 0.1-4.1 0.7-12.9 5.9-22.1 5.2-9.2 14.3-14.2 9.2-5 21.6-5 13.8 0 23.1 5.6 9.4 5.7 14.1 15.8 4.8 10.1 4.8 23.3v3.5q0 1.7-1.2 2.9-1.2 1.2-3.1 1.2h-56.4q0 0 0 0.5 0 0.5 0 0.9 0.2 5.9 2.3 10.9 2.1 5 6.3 8 4.2 3.1 10 3.1 4.7 0 7.9-1.5 3.3-1.4 5.3-3.3 2-1.8 2.9-3 1.5-2 2.5-2.5 0.9-0.4 2.8-0.4h14.6q1.7 0 2.8 1 1.1 1 0.9 2.6-0.2 2.7-2.8 6.6-2.6 3.9-7.6 7.6-4.9 3.7-12.3 6.2-7.4 2.4-16.9 2.4zm-18.7-53.8v0.5h37.6v-0.5q0-6.6-2.2-11.6-2.2-5-6.5-7.8-4.2-2.8-10.2-2.8-5.9 0-10.2 2.8-4.2 2.8-6.3 7.8-2.2 5-2.2 11.6z"/>
																</g>
															</g>
														</g>
													</g>
												</g>
											</g>
										</g>
									</g>
									<g id="Layer">
										<g id="Layer">
											<g id="Layer">
												<g id="icon-0">
													<g id="Layer">
														<g id="Layer">
															<g id="Layer">
																<g id="Layer">
																	<path id="Layer" class="s1" d="m178 167.4l-6.6-6 6.5-7-6.1-7.1 6.8-5.8 8.6 10.1c1.5 1.7 1.5 4.3-0.1 5.9z"/>
																	<path id="Layer" class="s1" d="m66.6 150.1h117.2v8.9h-117.2z"/>
																</g>
																<g id="Layer">
																	<path id="Layer" class="s1" d="m74.5 126.7c-0.9 0-1.8-0.3-2.6-0.9l-11.2-8.1 5.2-7.2 8.1 5.9 6.4-6.5 6.4 6.2-9.1 9.3c-0.9 0.8-2 1.3-3.2 1.3z"/>
																	<path id="Layer" class="s1" d="m116.4 159c-13.9 0-27.1-6-36.2-16.6l6.7-5.8c7.4 8.6 18.2 13.5 29.5 13.5z"/>
																	<path id="Layer" class="s1" d="m152.1 143.1l-6.7-5.9c2.1-2.4 3.9-5 5.4-7.7l7.9 4.1c-1.8 3.4-4.1 6.6-6.6 9.5z"/>
																	<path id="Layer" class="s1" d="m70.2 123.4c-1-3.9-1.5-8-1.5-12 0-26.3 21.4-47.6 47.7-47.6 26.4 0 47.8 21.3 47.8 47.6 0 3.9-0.5 7.8-1.5 11.6l-8.6-2.1c0.7-3.1 1.1-6.3 1.1-9.5 0-21.4-17.4-38.7-38.8-38.7-21.4 0-38.8 17.3-38.8 38.7 0 3.3 0.4 6.6 1.2 9.7z"/>
																</g>
																<g id="Layer">
																	<path id="Layer" class="s1" d="m79.5 56.8l-7.8-4.4 4.7-8.3-8.4-5.9 5.1-7.3 11.8 8.2c1.9 1.3 2.4 3.9 1.3 5.9z"/>
																	<path id="Layer" class="s1" d="m58.6 94.8c-6.2-6.2-9.6-14.5-9.6-23.3 0-18.3 14.9-33.2 33.3-33.2v8.9c-13.4 0-24.4 10.9-24.4 24.3 0 6.4 2.5 12.5 7 17.1z"/>
																</g>
															</g>
															<path id="Layer" class="s1" d="m116.3 128.8c-9.7 0-17.6-7.8-17.6-17.5 0-9.6 7.9-17.5 17.6-17.5 9.7 0 17.5 7.9 17.5 17.5 0 9.7-7.8 17.5-17.5 17.5z"/>
														</g>
													</g>
												</g>
											</g>
										</g>
									</g>
								</g>
							</g>
						</g>
					</g>
				</g>
			</g>
		</g>
	</g>
</svg>