<svg xmlns="http://www.w3.org/2000/svg" version="1.1" xmlns:xlink="http://www.w3.org/1999/xlink" xmlns:svgjs="http://svgjs.dev/svgjs" width="1500" height="219" viewBox="0 0 1500 219"><g transform="matrix(1,0,0,1,-0.9090909090909918,0.2425542023290035)"><svg viewBox="0 0 396 58" data-background-color="#ffffff" preserveAspectRatio="xMidYMid meet" height="219" width="1500" xmlns="http://www.w3.org/2000/svg" xmlns:xlink="http://www.w3.org/1999/xlink"><g id="tight-bounds" transform="matrix(1,0,0,1,0.2400000000000091,-0.06423809924694979)"><svg viewBox="0 0 395.52 58.1284761984939" height="58.1284761984939" width="395.52"><g><svg viewBox="0 0 395.52 58.1284761984939" height="58.1284761984939" width="395.52"><g><svg viewBox="0 0 499.61483267682087 73.42700472711644" height="58.1284761984939" width="395.52"><g><rect width="5.518102552466867" height="73.42700472711644" x="84.13143548438842" y="0" fill="#2196f3" opacity="1" stroke-width="0" stroke="transparent" fill-opacity="1" class="rect-qz-0" data-fill-palette-color="primary" rx="1%" id="qz-0" data-palette-color="#2196f3"></rect></g><g transform="matrix(1,0,0,1,104.09483267682091,6.118917060593034)"><svg viewBox="0 0 395.52 61.18917060593037" height="61.18917060593037" width="395.52"><g id="textblocktransform"><svg viewBox="0 0 395.52 61.18917060593037" height="61.18917060593037" width="395.52" id="textblock"><g><svg viewBox="0 0 395.52 61.18917060593037" height="61.18917060593037" width="395.52"><g transform="matrix(1,0,0,1,0,0)"><svg width="395.52" viewBox="1.8 -35.5 232.67999999999998 36" height="61.18917060593037" data-palette-color="#2196f3"><path d="M16.05 0.5L16.05 0.5Q11.4 0.5 8.28-0.88 5.15-2.25 3.53-4.48 1.9-6.7 1.8-9.15L1.8-9.15Q1.8-9.6 2.1-9.9 2.4-10.2 2.85-10.2L2.85-10.2 7.3-10.2Q7.95-10.2 8.28-9.93 8.6-9.65 8.85-9.25L8.85-9.25Q9.15-8.3 10-7.38 10.85-6.45 12.33-5.85 13.8-5.25 16.05-5.25L16.05-5.25Q19.65-5.25 21.43-6.45 23.2-7.65 23.2-9.7L23.2-9.7Q23.2-11.15 22.25-12.03 21.3-12.9 19.33-13.63 17.35-14.35 14.1-15.15L14.1-15.15Q10.35-16.05 7.83-17.32 5.3-18.6 4.03-20.55 2.75-22.5 2.75-25.5L2.75-25.5Q2.75-28.4 4.33-30.65 5.9-32.9 8.83-34.2 11.75-35.5 15.8-35.5L15.8-35.5Q19.05-35.5 21.55-34.63 24.05-33.75 25.7-32.33 27.35-30.9 28.23-29.28 29.1-27.65 29.15-26.1L29.15-26.1Q29.15-25.7 28.88-25.38 28.6-25.05 28.1-25.05L28.1-25.05 23.45-25.05Q23.05-25.05 22.65-25.25 22.25-25.45 22-26L22-26Q21.7-27.55 20.05-28.65 18.4-29.75 15.8-29.75L15.8-29.75Q13.1-29.75 11.45-28.75 9.8-27.75 9.8-25.65L9.8-25.65Q9.8-24.25 10.63-23.33 11.45-22.4 13.28-21.7 15.1-21 18.1-20.2L18.1-20.2Q22.35-19.25 25.05-18 27.75-16.75 29-14.83 30.25-12.9 30.25-9.95L30.25-9.95Q30.25-6.65 28.48-4.33 26.7-2 23.5-0.75 20.3 0.5 16.05 0.5ZM46.65 0.5L46.65 0.5Q43.05 0.5 40.32-0.85 37.6-2.2 36.07-4.78 34.55-7.35 34.4-11L34.4-11Q34.35-11.75 34.35-12.98 34.35-14.2 34.4-15L34.4-15Q34.55-18.65 36.07-21.23 37.6-23.8 40.32-25.15 43.05-26.5 46.65-26.5L46.65-26.5Q49.85-26.5 52.1-25.63 54.35-24.75 55.8-23.38 57.25-22 57.97-20.53 58.7-19.05 58.75-17.85L58.75-17.85Q58.8-17.3 58.42-16.98 58.05-16.65 57.55-16.65L57.55-16.65 53.15-16.65Q52.65-16.65 52.37-16.9 52.1-17.15 51.85-17.65L51.85-17.65Q51.1-19.65 49.87-20.48 48.65-21.3 46.75-21.3L46.75-21.3Q44.25-21.3 42.77-19.73 41.3-18.15 41.2-14.75L41.2-14.75Q41.1-12.85 41.2-11.25L41.2-11.25Q41.3-7.8 42.77-6.25 44.25-4.7 46.75-4.7L46.75-4.7Q48.7-4.7 49.9-5.53 51.1-6.35 51.85-8.35L51.85-8.35Q52.1-8.85 52.37-9.1 52.65-9.35 53.15-9.35L53.15-9.35 57.55-9.35Q58.05-9.35 58.42-9.03 58.8-8.7 58.75-8.15L58.75-8.15Q58.7-7.25 58.27-6.13 57.85-5 56.92-3.83 56-2.65 54.6-1.68 53.2-0.7 51.22-0.1 49.25 0.5 46.65 0.5ZM69.5 0L65.15 0Q64.65 0 64.3-0.35 63.95-0.7 63.95-1.2L63.95-1.2 63.95-24.75Q63.95-25.3 64.3-25.65 64.65-26 65.15-26L65.15-26 69.2-26Q69.7-26 70.07-25.65 70.45-25.3 70.45-24.75L70.45-24.75 70.45-22.7Q71.6-24.3 73.42-25.15 75.25-26 77.65-26L77.65-26 79.7-26Q80.25-26 80.57-25.65 80.9-25.3 80.9-24.8L80.9-24.8 80.9-21.2Q80.9-20.7 80.57-20.35 80.25-20 79.7-20L79.7-20 75.8-20Q73.4-20 72.07-18.68 70.75-17.35 70.75-14.95L70.75-14.95 70.75-1.2Q70.75-0.7 70.4-0.35 70.05 0 69.5 0L69.5 0ZM94.44 0.5L94.44 0.5Q91.39 0.5 89.17-0.88 86.94-2.25 85.74-4.78 84.54-7.3 84.54-10.75L84.54-10.75 84.54-24.8Q84.54-25.3 84.89-25.65 85.24-26 85.74-26L85.74-26 90.14-26Q90.69-26 91.02-25.65 91.34-25.3 91.34-24.8L91.34-24.8 91.34-11.05Q91.34-4.85 96.79-4.85L96.79-4.85Q99.39-4.85 100.92-6.5 102.44-8.15 102.44-11.05L102.44-11.05 102.44-24.8Q102.44-25.3 102.79-25.65 103.14-26 103.64-26L103.64-26 108.04-26Q108.54-26 108.89-25.65 109.24-25.3 109.24-24.8L109.24-24.8 109.24-1.2Q109.24-0.7 108.89-0.35 108.54 0 108.04 0L108.04 0 103.99 0Q103.44 0 103.12-0.35 102.79-0.7 102.79-1.2L102.79-1.2 102.79-3.25Q101.44-1.5 99.44-0.5 97.44 0.5 94.44 0.5ZM121.24 0L117.04 0Q116.54 0 116.19-0.35 115.84-0.7 115.84-1.2L115.84-1.2 115.84-24.8Q115.84-25.3 116.19-25.65 116.54-26 117.04-26L117.04-26 120.94-26Q121.44-26 121.79-25.65 122.14-25.3 122.14-24.8L122.14-24.8 122.14-23.1Q123.19-24.5 124.97-25.48 126.74-26.45 129.19-26.5L129.19-26.5Q134.89-26.6 137.14-22.05L137.14-22.05Q138.29-24.05 140.47-25.28 142.64-26.5 145.29-26.5L145.29-26.5Q147.89-26.5 150.02-25.3 152.14-24.1 153.37-21.68 154.59-19.25 154.59-15.55L154.59-15.55 154.59-1.2Q154.59-0.7 154.24-0.35 153.89 0 153.39 0L153.39 0 149.29 0Q148.79 0 148.44-0.35 148.09-0.7 148.09-1.2L148.09-1.2 148.09-15.15Q148.09-17.4 147.44-18.73 146.79-20.05 145.69-20.6 144.59-21.15 143.24-21.15L143.24-21.15Q142.14-21.15 141.04-20.6 139.94-20.05 139.24-18.73 138.54-17.4 138.54-15.15L138.54-15.15 138.54-1.2Q138.54-0.7 138.19-0.35 137.84 0 137.34 0L137.34 0 133.24 0Q132.74 0 132.39-0.35 132.04-0.7 132.04-1.2L132.04-1.2 132.04-15.15Q132.04-17.4 131.34-18.73 130.64-20.05 129.54-20.6 128.44-21.15 127.19-21.15L127.19-21.15Q126.04-21.15 124.94-20.58 123.84-20 123.14-18.7 122.44-17.4 122.44-15.15L122.44-15.15 122.44-1.2Q122.44-0.7 122.09-0.35 121.74 0 121.24 0L121.24 0ZM168.49 0.5L168.49 0.5Q165.89 0.5 163.79-0.53 161.69-1.55 160.46-3.28 159.24-5 159.24-7.15L159.24-7.15Q159.24-10.65 162.09-12.73 164.94-14.8 169.54-15.5L169.54-15.5 176.39-16.5 176.39-17.55Q176.39-19.65 175.34-20.8 174.29-21.95 171.74-21.95L171.74-21.95Q169.94-21.95 168.81-21.23 167.69-20.5 167.14-19.3L167.14-19.3Q166.74-18.65 165.99-18.65L165.99-18.65 162.04-18.65Q161.49-18.65 161.21-18.95 160.94-19.25 160.94-19.75L160.94-19.75Q160.99-20.55 161.61-21.7 162.24-22.85 163.51-23.93 164.79-25 166.84-25.75 168.89-26.5 171.79-26.5L171.79-26.5Q174.94-26.5 177.11-25.73 179.29-24.95 180.59-23.65 181.89-22.35 182.49-20.6 183.09-18.85 183.09-16.9L183.09-16.9 183.09-1.2Q183.09-0.7 182.74-0.35 182.39 0 181.89 0L181.89 0 177.84 0Q177.29 0 176.96-0.35 176.64-0.7 176.64-1.2L176.64-1.2 176.64-3.15Q175.99-2.25 174.89-1.4 173.79-0.55 172.21-0.03 170.64 0.5 168.49 0.5ZM170.19-4.25L170.19-4.25Q171.94-4.25 173.36-5 174.79-5.75 175.61-7.33 176.44-8.9 176.44-11.3L176.44-11.3 176.44-12.35 171.44-11.55Q168.49-11.1 167.04-10.1 165.59-9.1 165.59-7.65L165.59-7.65Q165.59-6.55 166.26-5.78 166.94-5 167.99-4.63 169.04-4.25 170.19-4.25ZM205.29 0L201.24 0Q198.24 0 196.19-1.05 194.14-2.1 193.14-4.17 192.14-6.25 192.14-9.35L192.14-9.35 192.14-20.7 188.19-20.7Q187.69-20.7 187.34-21.05 186.99-21.4 186.99-21.95L186.99-21.95 186.99-24.8Q186.99-25.3 187.34-25.65 187.69-26 188.19-26L188.19-26 192.14-26 192.14-34.3Q192.14-34.8 192.46-35.15 192.79-35.5 193.34-35.5L193.34-35.5 197.39-35.5Q197.89-35.5 198.24-35.15 198.59-34.8 198.59-34.3L198.59-34.3 198.59-26 204.84-26Q205.34-26 205.69-25.65 206.04-25.3 206.04-24.8L206.04-24.8 206.04-21.95Q206.04-21.4 205.69-21.05 205.34-20.7 204.84-20.7L204.84-20.7 198.59-20.7 198.59-9.85Q198.59-7.8 199.31-6.65 200.04-5.5 201.84-5.5L201.84-5.5 205.29-5.5Q205.79-5.5 206.14-5.15 206.49-4.8 206.49-4.3L206.49-4.3 206.49-1.2Q206.49-0.7 206.14-0.35 205.79 0 205.29 0L205.29 0ZM222.13 0.5L222.13 0.5Q216.58 0.5 213.33-2.7 210.08-5.9 209.83-11.8L209.83-11.8Q209.78-12.3 209.78-13.08 209.78-13.85 209.83-14.3L209.83-14.3Q210.03-18.1 211.56-20.83 213.08-23.55 215.78-25.03 218.48-26.5 222.13-26.5L222.13-26.5Q226.18-26.5 228.93-24.83 231.68-23.15 233.08-20.18 234.48-17.2 234.48-13.3L234.48-13.3 234.48-12.25Q234.48-11.75 234.13-11.4 233.78-11.05 233.23-11.05L233.23-11.05 216.63-11.05Q216.63-11.05 216.63-10.9 216.63-10.75 216.63-10.65L216.63-10.65Q216.68-8.9 217.31-7.43 217.93-5.95 219.16-5.05 220.38-4.15 222.08-4.15L222.08-4.15Q223.48-4.15 224.43-4.58 225.38-5 225.98-5.55 226.58-6.1 226.83-6.45L226.83-6.45Q227.28-7.05 227.56-7.18 227.83-7.3 228.38-7.3L228.38-7.3 232.68-7.3Q233.18-7.3 233.51-7 233.83-6.7 233.78-6.25L233.78-6.25Q233.73-5.45 232.96-4.3 232.18-3.15 230.73-2.05 229.28-0.95 227.11-0.23 224.93 0.5 222.13 0.5ZM216.63-15.4L216.63-15.25 227.68-15.25 227.68-15.4Q227.68-17.35 227.03-18.82 226.38-20.3 225.13-21.13 223.88-21.95 222.13-21.95L222.13-21.95Q220.38-21.95 219.13-21.13 217.88-20.3 217.26-18.82 216.63-17.35 216.63-15.4L216.63-15.4Z" opacity="1" transform="matrix(1,0,0,1,0,0)" fill="#2196f3" class="wordmark-text-0" data-fill-palette-color="primary" id="text-0"></path></svg></g></svg></g></svg></g></svg></g><g transform="matrix(1,0,0,1,0,2.465311683712926)"><svg viewBox="0 0 69.6861408444228 68.49638135969059" height="68.49638135969059" width="69.6861408444228"><g><svg xmlns="http://www.w3.org/2000/svg" xmlns:xlink="http://www.w3.org/1999/xlink" version="1.1" x="0" y="0" viewBox="22 25.995 468.00022152276415 460.01" style="enable-background:new 0 0 512 512;" xml:space="preserve" height="68.49638135969059" width="69.6861408444228" class="icon-icon-0" data-fill-palette-color="accent" id="icon-0"><g fill="#2196f3" data-fill-palette-color="accent"><g fill="#2196f3" data-fill-palette-color="accent"><g fill="#2196f3" data-fill-palette-color="accent"><g fill="#2196f3" data-fill-palette-color="accent"><path d="M455.273 486.005l-22.048-20.344 21.708-23.527-20.387-23.811 22.788-19.512 29.06 33.939c4.946 5.776 4.787 14.339-0.37 19.928L455.273 486.005z" fill="#2196f3" data-fill-palette-color="accent"></path><rect x="81.072" y="427.716" width="393.897" height="30" fill="#2196f3" data-fill-palette-color="accent"></rect></g><g fill="#2196f3" data-fill-palette-color="accent"><path d="M107.725 348.779c-3.07 0-6.155-0.938-8.8-2.856L61.27 318.622l17.609-24.288 27.173 19.701 21.316-21.813 21.456 20.968-30.366 31.073C115.542 347.246 111.646 348.779 107.725 348.779z" fill="#2196f3" data-fill-palette-color="accent"></path><path d="M248.484 457.716c-46.848 0-91.232-20.415-121.772-56.009l22.768-19.535c24.833 28.944 60.919 45.544 99.004 45.544V457.716z" fill="#2196f3" data-fill-palette-color="accent"></path><path d="M368.22 404.035l-22.39-19.968c7.038-7.892 13.104-16.617 18.029-25.935l26.522 14.021C384.326 383.61 376.869 394.337 368.22 404.035z" fill="#2196f3" data-fill-palette-color="accent"></path><path d="M93.169 337.547c-3.393-13.109-5.113-26.682-5.113-40.343 0-88.507 71.968-160.512 160.428-160.512s160.428 72.005 160.428 160.512c0 13.267-1.624 26.462-4.827 39.219l-29.097-7.306c2.604-10.37 3.924-21.107 3.924-31.914 0-71.965-58.51-130.512-130.428-130.512s-130.428 58.547-130.428 130.512c0 11.126 1.398 22.17 4.156 32.826L93.169 337.547z" fill="#2196f3" data-fill-palette-color="accent"></path></g><g fill="#2196f3" data-fill-palette-color="accent"><path d="M124.332 113.26L98.234 98.465l15.896-28.04L85.729 50.591l17.177-24.596 39.596 27.652c6.345 4.431 8.277 12.963 4.46 19.695L124.332 113.26z" fill="#2196f3" data-fill-palette-color="accent"></path><path d="M54.18 241.343C33.428 220.281 22 192.398 22 162.831c0-61.694 50.204-111.886 111.913-111.886v30C88.746 80.945 52 117.679 52 162.831c0 21.638 8.363 42.043 23.55 57.457L54.18 241.343z" fill="#2196f3" data-fill-palette-color="accent"></path></g></g><ellipse cx="248" cy="297.021" rx="59" ry="58.938" fill="#2196f3" data-fill-palette-color="accent"></ellipse></g></g></svg></g></svg></g></svg></g></svg></g><defs></defs></svg><rect width="395.52" height="58.1284761984939" fill="none" stroke="none" visibility="hidden"></rect></g></svg></g></svg>